<svg id="Capa_1" data-name="Capa 1" xmlns="http://www.w3.org/2000/svg" viewBox="0 0 25 25"><defs><style>.cls-1{fill:#ffce00;}.cls-2{fill:#fff;}</style></defs><path class="cls-1" d="M12.5.1A3.3,3.3,0,0,0,9.2,3.4v1h1.71v-1a1.59,1.59,0,0,1,3.18,0v1H15.8v-1A3.3,3.3,0,0,0,12.5.1Z"/><path class="cls-1" d="M14.83,20.89a2.3,2.3,0,0,1-2.3,2.3h-.06a2.3,2.3,0,0,1-2.3-2.3H8.46a4,4,0,0,0,4,4h.06a4,4,0,0,0,4-4Z"/><path class="cls-1" d="M23.54,20.57,21.11,16.8V12A8.61,8.61,0,1,0,3.89,12V16.8L1.46,20.57a.85.85,0,0,0,0,.87.86.86,0,0,0,.75.44H22.82a.86.86,0,0,0,.75-.44A.85.85,0,0,0,23.54,20.57Z"/><path class="cls-2" d="M6,16.65a.59.59,0,0,1-.59-.57c0-1.3-.06-4.21,0-4.74a9.42,9.42,0,0,1,2.43-5.1A10.18,10.18,0,0,1,9.29,5a.58.58,0,0,1,.85.18h0A.59.59,0,0,1,10,5.9,9,9,0,0,0,8.68,7.06,8.08,8.08,0,0,0,6.57,11.5c-.05.37,0,2.79,0,4.56a.58.58,0,0,1-.57.59Z"/></svg>