<svg id="Capa_1" data-name="Capa 1" xmlns="http://www.w3.org/2000/svg" viewBox="0 0 25 25"><defs><style>.cls-1{fill:#fff;}.cls-2{fill:#fb0200;}.cls-3{fill:#606060;}</style></defs><rect class="cls-1" x="0.94" y="7.88" width="23.2" height="15.98"/><rect class="cls-2" x="1.63" y="2.98" width="21.74" height="6.36"/><path class="cls-3" d="M23.19,2.41H1.81A1.52,1.52,0,0,0,.3,3.92V23.49A1.52,1.52,0,0,0,1.81,25H23.19a1.52,1.52,0,0,0,1.51-1.51V3.92A1.52,1.52,0,0,0,23.19,2.41Zm-.3,20.78H2.11v-19H22.89v19Z"/><rect class="cls-2" x="1.2" y="8.43" width="22.59" height="1.81"/><path class="cls-3" d="M6.63,0a.9.9,0,0,0-.91.9V5.72a.91.91,0,1,0,1.81,0V.9A.9.9,0,0,0,6.63,0Z"/><path class="cls-3" d="M18.67,0a.9.9,0,0,0-.9.9V5.72a.91.91,0,1,0,1.81,0V.9A.9.9,0,0,0,18.67,0Z"/><path class="cls-3" d="M16,18.07H9.34a.91.91,0,1,0,0,1.81H16a.91.91,0,1,0,0-1.81Z"/><path class="cls-3" d="M16,13.86H9.34a.9.9,0,1,0,0,1.8H16a.9.9,0,1,0,0-1.8Z"/></svg>