<svg id="Capa_1" data-name="Capa 1" xmlns="http://www.w3.org/2000/svg" viewBox="0 0 15 26"><defs><style>.cls-1{fill:#86ae17;}</style></defs><path class="cls-1" d="M14.23,5a7.26,7.26,0,0,0-3.92,1.13c0-.22,0-.43,0-.65A7.35,7.35,0,0,0,8.19.26.77.77,0,0,0,7.1.26,7.39,7.39,0,0,0,5,6.11,7.26,7.26,0,0,0,1.06,5a.77.77,0,0,0-.54.22.77.77,0,0,0-.22.54A7.29,7.29,0,0,0,1.59,9.91l-.53,0a.78.78,0,0,0-.54.23.77.77,0,0,0-.22.54,7.29,7.29,0,0,0,1.3,4.17l-.54,0a.76.76,0,0,0-.76.77,7.37,7.37,0,0,0,6.58,7.31v2.26a.77.77,0,1,0,1.53,0V22.89a7.31,7.31,0,0,0,4.43-2.12h0A7.27,7.27,0,0,0,15,15.58a.76.76,0,0,0-.22-.54.74.74,0,0,0-.54-.23l-.53,0A7.32,7.32,0,0,0,15,10.66a.77.77,0,0,0-.22-.54.78.78,0,0,0-.54-.23l-.53,0A7.25,7.25,0,0,0,15,5.76a.65.65,0,0,0-.05-.31A.76.76,0,0,0,14.23,5ZM7.65,2a5.82,5.82,0,0,1,.27,6.58h0L7.65,9A5.82,5.82,0,0,1,7.65,2ZM1.88,6.56a5.85,5.85,0,0,1,3.3,1.65A5.75,5.75,0,0,1,6.82,11.5,5.75,5.75,0,0,1,3.53,9.86,5.85,5.85,0,0,1,1.88,6.56Zm0,4.92a5.83,5.83,0,0,1,4.93,4.94A5.82,5.82,0,0,1,1.89,11.48Zm0,4.92a5.73,5.73,0,0,1,3.3,1.65,5.75,5.75,0,0,1,1.64,3.29A5.84,5.84,0,0,1,1.88,16.4Zm9.88,3.29h0a5.82,5.82,0,0,1-3.29,1.65,5.84,5.84,0,0,1,4.94-4.94A5.82,5.82,0,0,1,11.76,19.69Zm0-4.92a5.7,5.7,0,0,1-3.29,1.65,5.7,5.7,0,0,1,1.65-3.29,5.79,5.79,0,0,1,3.29-1.65A5.82,5.82,0,0,1,11.76,14.77Zm0-4.91A5.75,5.75,0,0,1,8.47,11.5a5.76,5.76,0,0,1,.77-2.17l0,0a5.58,5.58,0,0,1,.86-1.09,5.79,5.79,0,0,1,3.29-1.65A5.85,5.85,0,0,1,11.76,9.86Z"/></svg>