<svg xmlns="http://www.w3.org/2000/svg" height="512pt" version="1.1" viewBox="-59 0 512 512" width="512pt">
<g id="surface1">
<path d="M 331.867188 256 L 331.867188 467 C 331.867188 475.398438 325.269531 482 316.867188 482 L 76.867188 482 C 68.464844 482 61.867188 475.398438 61.867188 467 L 61.867188 256 C 61.867188 181.597656 122.46875 121 196.867188 121 C 271.265625 121 331.867188 181.597656 331.867188 256 Z M 331.867188 256 " style=" stroke:none;fill-rule:nonzero;fill:rgb(100%,28.627451%,28.627451%);fill-opacity:1;" />
<path d="M 331.867188 256 L 331.867188 467 C 331.867188 475.398438 325.269531 482 316.867188 482 L 196.867188 482 L 196.867188 121 C 271.265625 121 331.867188 181.597656 331.867188 256 Z M 331.867188 256 " style=" stroke:none;fill-rule:nonzero;fill:rgb(100%,9.803922%,23.921569%);fill-opacity:1;" />
<path d="M 271.867188 286 C 271.867188 309.699219 260.46875 331.898438 241.867188 346 L 241.867188 467 C 241.867188 475.398438 235.269531 482 226.867188 482 L 166.867188 482 C 158.464844 482 151.867188 475.398438 151.867188 467 L 151.867188 346 C 133.265625 331.898438 121.867188 309.699219 121.867188 286 C 121.867188 244.601562 155.46875 211 196.867188 211 C 238.265625 211 271.867188 244.601562 271.867188 286 Z M 271.867188 286 " style=" stroke:none;fill-rule:nonzero;fill:rgb(100%,42.352941%,42.352941%);fill-opacity:1;" />
<path d="M 271.867188 286 C 271.867188 309.699219 260.46875 331.898438 241.867188 346 L 241.867188 467 C 241.867188 475.398438 235.269531 482 226.867188 482 L 196.867188 482 L 196.867188 211 C 238.265625 211 271.867188 244.601562 271.867188 286 Z M 271.867188 286 " style=" stroke:none;fill-rule:nonzero;fill:rgb(100%,28.627451%,28.627451%);fill-opacity:1;" />
<path d="M 211.867188 286 C 211.867188 294.398438 205.269531 301 196.867188 301 C 188.464844 301 181.867188 294.398438 181.867188 286 C 181.867188 277.597656 188.464844 271 196.867188 271 C 205.269531 271 211.867188 277.597656 211.867188 286 Z M 211.867188 286 " style=" stroke:none;fill-rule:nonzero;fill:rgb(100%,28.627451%,28.627451%);fill-opacity:1;" />
<path d="M 211.867188 15 L 211.867188 76 C 211.867188 84.398438 205.269531 91 196.867188 91 C 188.464844 91 181.867188 84.398438 181.867188 76 L 181.867188 15 C 181.867188 6.597656 188.464844 0 196.867188 0 C 205.269531 0 211.867188 6.597656 211.867188 15 Z M 211.867188 15 " style=" stroke:none;fill-rule:nonzero;fill:rgb(100%,80.392157%,0%);fill-opacity:1;" />
<path d="M 7.507812 133.992188 L 59.464844 163.992188 C 66.617188 168.125 75.808594 165.683594 79.957031 158.5 C 84.105469 151.320312 81.644531 142.152344 74.464844 138.007812 L 22.507812 108.007812 C 15.328125 103.875 6.144531 106.292969 2.015625 113.5 C -2.132812 120.679688 0.328125 129.847656 7.507812 133.992188 Z M 7.507812 133.992188 " style=" stroke:none;fill-rule:nonzero;fill:rgb(100%,80.392157%,0%);fill-opacity:1;" />
<path d="M 108.875 103.597656 C 113.03125 110.796875 122.226562 113.214844 129.367188 109.089844 C 136.546875 104.945312 139.007812 95.777344 134.859375 88.597656 L 104.859375 36.640625 C 100.699219 29.433594 91.515625 26.972656 84.367188 31.148438 C 77.1875 35.292969 74.726562 44.460938 78.875 51.640625 Z M 108.875 103.597656 " style=" stroke:none;fill-rule:nonzero;fill:rgb(100%,80.392157%,0%);fill-opacity:1;" />
<path d="M 313.777344 158.5 C 317.933594 165.695312 327.128906 168.117188 334.269531 163.992188 L 386.226562 133.992188 C 393.40625 129.847656 395.867188 120.679688 391.71875 113.5 C 387.574219 106.292969 378.359375 103.875 371.226562 108.007812 L 319.269531 138.007812 C 312.09375 142.152344 309.632812 151.320312 313.777344 158.5 Z M 313.777344 158.5 " style=" stroke:none;fill-rule:nonzero;fill:rgb(93.333333%,74.901961%,0%);fill-opacity:1;" />
<path d="M 264.367188 109.089844 C 271.519531 113.222656 280.710938 110.78125 284.859375 103.597656 L 314.859375 51.640625 C 319.007812 44.460938 316.546875 35.292969 309.367188 31.148438 C 302.175781 26.972656 293.003906 29.433594 288.875 36.640625 L 258.875 88.597656 C 254.726562 95.773438 257.1875 104.945312 264.367188 109.089844 Z M 264.367188 109.089844 " style=" stroke:none;fill-rule:nonzero;fill:rgb(93.333333%,74.901961%,0%);fill-opacity:1;" />
<path d="M 196.867188 91 L 196.867188 0 C 205.269531 0 211.867188 6.597656 211.867188 15 L 211.867188 76 C 211.867188 84.398438 205.269531 91 196.867188 91 Z M 196.867188 91 " style=" stroke:none;fill-rule:nonzero;fill:rgb(93.333333%,74.901961%,0%);fill-opacity:1;" />
<path d="M 211.867188 286 C 211.867188 294.398438 205.269531 301 196.867188 301 L 196.867188 271 C 205.269531 271 211.867188 277.597656 211.867188 286 Z M 211.867188 286 " style=" stroke:none;fill-rule:nonzero;fill:rgb(100%,9.803922%,23.921569%);fill-opacity:1;" />
<path d="M 391.867188 497 C 391.867188 505.398438 385.269531 512 376.867188 512 L 16.867188 512 C 8.464844 512 1.867188 505.398438 1.867188 497 C 1.867188 472.097656 21.964844 452 46.867188 452 L 346.867188 452 C 371.769531 452 391.867188 472.097656 391.867188 497 Z M 391.867188 497 " style=" stroke:none;fill-rule:nonzero;fill:rgb(40.784314%,32.941176%,30.980392%);fill-opacity:1;" />
<path d="M 391.867188 497 C 391.867188 505.398438 385.269531 512 376.867188 512 L 196.867188 512 L 196.867188 452 L 346.867188 452 C 371.769531 452 391.867188 472.097656 391.867188 497 Z M 391.867188 497 " style=" stroke:none;fill-rule:nonzero;fill:rgb(32.54902%,26.27451%,24.705882%);fill-opacity:1;" />
</g>
</svg>