<svg id="Capa_1" data-name="Capa 1" xmlns="http://www.w3.org/2000/svg" viewBox="0 0 24 25"><defs><style>.cls-1{fill:#86ae17;}</style></defs><rect class="cls-1" x="0.96" y="8.53" width="22.08" height="1.77"/><path class="cls-1" d="M22.45,2.64H1.55A1.47,1.47,0,0,0,.08,4.11V23.25a1.47,1.47,0,0,0,1.47,1.47h20.9a1.47,1.47,0,0,0,1.47-1.47V4.11A1.47,1.47,0,0,0,22.45,2.64ZM22.16,23H1.84V4.4H22.16V23Z"/><path class="cls-1" d="M6.26.28a.88.88,0,0,0-.88.89V5.88a.88.88,0,1,0,1.76,0V1.17A.88.88,0,0,0,6.26.28Z"/><path class="cls-1" d="M18,.28a.89.89,0,0,0-.89.89V5.88a.89.89,0,0,0,1.77,0V1.17A.89.89,0,0,0,18,.28Z"/><path class="cls-1" d="M15.39,18H8.91a.88.88,0,0,0,0,1.76h6.48a.88.88,0,0,0,0-1.76Z"/><path class="cls-1" d="M15.39,13.82H8.91a.89.89,0,0,0,0,1.77h6.48a.89.89,0,0,0,0-1.77Z"/></svg>