<svg id="Capa_1" data-name="Capa 1" xmlns="http://www.w3.org/2000/svg" viewBox="0 0 13 13"><defs><style>.cls-1{fill:#fff;}</style></defs><path class="cls-1" d="M12.85,3.2,9.8.15A.47.47,0,0,0,9.45,0h0a.48.48,0,0,0-.36.15L1,8.25a.48.48,0,0,0-.14.25L0,12.39a.5.5,0,0,0,.14.46A.48.48,0,0,0,.51,13h.1l3.89-.86A.48.48,0,0,0,4.75,12l8.1-8.08A.48.48,0,0,0,13,3.55.47.47,0,0,0,12.85,3.2Zm-8.71,8-3,.66.66-3L9.45,1.22l2.33,2.33Z"/><rect class="cls-1" x="8.66" y="1.68" width="1.01" height="4.31" transform="translate(-0.02 7.61) rotate(-45)"/><rect class="cls-1" x="2.37" y="7.98" width="1.01" height="4.29" transform="translate(-6.31 5) rotate(-45)"/></svg>