<svg id="Capa_1" data-name="Capa 1" xmlns="http://www.w3.org/2000/svg" viewBox="0 0 512.01 512.01"><defs><style>.cls-1{fill:#fff;}</style></defs><path class="cls-1" d="M506.18,125.86l-120-120A19.93,19.93,0,0,0,372.06,0h0A20,20,0,0,0,358,5.84l-318.34,319a20,20,0,0,0-5.34,9.77L.47,487.83A19.91,19.91,0,0,0,19.9,512a19.44,19.44,0,0,0,4.29-.47L177.4,477.71a19.92,19.92,0,0,0,9.76-5.36L506.16,154a19.89,19.89,0,0,0,0-28.16Zm-343,314.25L46.05,466,71.91,348.86,372.08,48.06,464,139.94Z"/><rect class="cls-1" x="341.22" y="66.05" width="39.79" height="169.76" transform="translate(-0.96 299.56) rotate(-45)"/><rect class="cls-1" x="93.51" y="314.18" width="39.79" height="168.82" transform="translate(-248.64 196.93) rotate(-45)"/></svg>