<svg id="Capa_1" data-name="Capa 1" xmlns="http://www.w3.org/2000/svg" viewBox="0 0 512 512"><defs><style>.cls-1{fill:#86ae17;}</style></defs><path class="cls-1" d="M135.71,0a18.5,18.5,0,0,0-18.5,18.51v98.7a18.51,18.51,0,0,0,37,0V18.51A18.51,18.51,0,0,0,135.71,0Z"/><path class="cls-1" d="M326.94,370.12H191.23a18.51,18.51,0,1,0,0,37H326.94a18.51,18.51,0,1,0,0-37Z"/><path class="cls-1" d="M475,49.35H37A30.88,30.88,0,0,0,6.17,80.19v401A30.88,30.88,0,0,0,37,512H475a30.88,30.88,0,0,0,30.84-30.84v-401A30.88,30.88,0,0,0,475,49.35ZM468.82,475H43.18V86.36H468.82V475Z"/><rect class="cls-1" x="24.67" y="172.72" width="462.65" height="37.01"/><path class="cls-1" d="M382.46,0A18.51,18.51,0,0,0,364,18.51v98.7a18.51,18.51,0,0,0,37,0V18.51A18.5,18.5,0,0,0,382.46,0Z"/><path class="cls-1" d="M326.94,283.76H191.23a18.51,18.51,0,1,0,0,37H326.94a18.51,18.51,0,1,0,0-37Z"/></svg>