<svg id="Capa_1" data-name="Capa 1" xmlns="http://www.w3.org/2000/svg" viewBox="0 0 13 13"><defs><style>.cls-1{fill:#fff;}</style></defs><polygon class="cls-1" points="8.98 4.48 7.96 4.45 7.74 10.47 8.76 10.51 8.98 4.48"/><rect class="cls-1" x="5.99" y="4.46" width="1.02" height="6.02"/><polygon class="cls-1" points="5.26 10.47 5.04 4.45 4.02 4.48 4.24 10.51 5.26 10.47"/><path class="cls-1" d="M.44,2V3H1.5l.84,9.57a.52.52,0,0,0,.51.46h7.28a.5.5,0,0,0,.51-.46L11.48,3h1.08V2ZM9.67,12H3.32l-.8-9h7.94Z"/><path class="cls-1" d="M8.16,0H4.84A.85.85,0,0,0,4,.85V2.46H5V1H8V2.46H9V.85A.85.85,0,0,0,8.16,0Z"/></svg>