<svg id="Capa_1" data-name="Capa 1" xmlns="http://www.w3.org/2000/svg" viewBox="0 0 512 512"><defs><style>.cls-1{fill:#86ae17;}</style></defs><path class="cls-1" d="M256,288.39c-153.84,0-238.56,72.78-238.56,204.92A18.69,18.69,0,0,0,36.13,512H475.87a18.69,18.69,0,0,0,18.69-18.69C494.56,361.17,409.84,288.39,256,288.39ZM55.49,474.63C62.84,375.82,130.21,325.76,256,325.76s193.16,50.06,200.52,148.87Z"/><path class="cls-1" d="M256,0C185.33,0,132.05,54.36,132.05,126.44c0,74.19,55.6,134.54,124,134.54s124-60.35,124-134.54C380,54.36,326.67,0,256,0Zm0,223.61c-47.74,0-86.58-43.59-86.58-97.17,0-51.61,36.41-89.07,86.58-89.07,49.36,0,86.58,38.29,86.58,89.07C342.58,180,303.74,223.61,256,223.61Z"/></svg>