<svg id="Capa_1" data-name="Capa 1" xmlns="http://www.w3.org/2000/svg" viewBox="0 0 512 512"><defs><style>.cls-1{fill:#fff;}</style></defs><path class="cls-1" d="M437.8,104.21H227.22L156.47,50a17.06,17.06,0,0,0-10.35-3.51H17a17,17,0,0,0-17,17V448.57a17,17,0,0,0,17,17H410.05v-34H34V80.43H140.36l70.75,54.25a17,17,0,0,0,10.34,3.51H420.81v52.68h34V121.2A17,17,0,0,0,437.8,104.21Z"/><path class="cls-1" d="M508.26,180.8A17,17,0,0,0,495,174.45H98.55A17,17,0,0,0,82,187.78L25.32,444.35A17,17,0,0,0,41.91,465H438.37A17,17,0,0,0,455,451.66L511.6,195.1A17,17,0,0,0,508.26,180.8ZM424.72,431H63.06L112.2,208.43H473.86Z"/></svg>