<svg id="Capa_1" data-name="Capa 1" xmlns="http://www.w3.org/2000/svg" viewBox="0 0 313.94 512"><defs><style>.cls-1{fill:#86ae17;}</style></defs><path class="cls-1" d="M286.48,99.2a143.16,143.16,0,0,0-76.83,22.14q.56-6.32.56-12.71A143.12,143.12,0,0,0,168,6.76a15,15,0,0,0-21.22,0,143.84,143.84,0,0,0-41.56,114.62A143.13,143.13,0,0,0,28.34,99.2a15,15,0,0,0-15,15A143,143,0,0,0,38.76,196c-3.44-.24-6.91-.38-10.42-.38a15,15,0,0,0-15,15,143.39,143.39,0,0,0,25.53,81.78Q33.64,292,28.34,292a15,15,0,0,0-15,15c0,74.37,56.64,135.76,129.06,143.28v44.35a15,15,0,0,0,30,0V450.3a143,143,0,0,0,86.87-41.42h0A143.12,143.12,0,0,0,301.48,307a15,15,0,0,0-15-15c-3.5,0-7,.12-10.42.37a143.14,143.14,0,0,0,25.42-81.78,15,15,0,0,0-15-15q-5.25,0-10.42.37a142.94,142.94,0,0,0,25.41-81.49,14.71,14.71,0,0,0-1.14-6A15,15,0,0,0,286.48,99.2Zm-129.06-59a114.25,114.25,0,0,1,5.37,129.11.16.16,0,0,0,0,.07q-2.5,3.94-5.33,7.72A114.32,114.32,0,0,1,157.42,40.18Zm-113,90.15A113.22,113.22,0,0,1,109,162.61a113.25,113.25,0,0,1,32.28,64.54,114.17,114.17,0,0,1-96.82-96.82Zm0,96.41a114.34,114.34,0,0,1,96.79,96.8A114.34,114.34,0,0,1,44.48,226.74Zm0,96.39A113.19,113.19,0,0,1,109,355.41,113.26,113.26,0,0,1,141.29,420a114.14,114.14,0,0,1-96.82-96.82Zm193.61,64.53h0A113.25,113.25,0,0,1,173.53,420a114.17,114.17,0,0,1,96.82-96.82A113.18,113.18,0,0,1,238.08,387.66Zm0-96.39a113.25,113.25,0,0,1-64.54,32.28,114.17,114.17,0,0,1,96.82-96.82A113.25,113.25,0,0,1,238.07,291.27Zm0-96.4a113.25,113.25,0,0,1-64.54,32.28,112.89,112.89,0,0,1,15.1-42.59l.37-.6a115.31,115.31,0,0,1,16.82-21.35,113.22,113.22,0,0,1,64.53-32.28A113.25,113.25,0,0,1,238.07,194.87Z"/></svg>