<svg id="Capa_1" data-name="Capa 1" xmlns="http://www.w3.org/2000/svg" viewBox="0 0 21 16"><defs><style>.cls-1{fill:#fff;}</style></defs><path class="cls-1" d="M20,2.5a2.18,2.18,0,0,0-1.6-.68H15.17v0A1.72,1.72,0,0,0,14.65.53,1.75,1.75,0,0,0,13.4,0H7.6A1.78,1.78,0,0,0,5.81,1.78v0H2.62A2.18,2.18,0,0,0,1,2.5,2.29,2.29,0,0,0,.35,4.1v9.61A2.22,2.22,0,0,0,1,15.32a2.33,2.33,0,0,0,1.6.67H18.38a2.21,2.21,0,0,0,1.6-.67,2.34,2.34,0,0,0,.67-1.61V4.1A2.18,2.18,0,0,0,20,2.5Zm-.33,11.21h0A1.26,1.26,0,0,1,18.38,15H2.62a1.26,1.26,0,0,1-1.25-1.26V4.1a1.25,1.25,0,0,1,.37-.89,1.23,1.23,0,0,1,.88-.36H6.35a.52.52,0,0,0,.52-.52V1.77A.73.73,0,0,1,7.62,1H13.4a.73.73,0,0,1,.75.76v.56a.52.52,0,0,0,.52.52h3.72A1.25,1.25,0,0,1,19.65,4.1Z"/><path class="cls-1" d="M10.5,4.16A4.76,4.76,0,0,0,7.14,5.55,4.7,4.7,0,0,0,5.75,8.91a4.75,4.75,0,0,0,8.11,3.36,4.76,4.76,0,0,0,0-6.72A4.76,4.76,0,0,0,10.5,4.16Zm2.63,7.39a3.74,3.74,0,0,1-5.26,0A3.7,3.7,0,0,1,6.79,8.93,3.81,3.81,0,0,1,7.87,6.3,3.74,3.74,0,0,1,10.5,5.22,3.82,3.82,0,0,1,13.13,6.3a3.72,3.72,0,0,1,1.08,2.63A3.61,3.61,0,0,1,13.13,11.55Z"/><circle class="cls-1" cx="17.37" cy="5.09" r="0.95"/></svg>