<svg id="Capa_1" data-name="Capa 1" xmlns="http://www.w3.org/2000/svg" viewBox="0 0 10 10"><defs><style>.cls-1{fill:#fff;}</style></defs><path class="cls-1" d="M5,5.63c-3,0-4.66,1.42-4.66,4A.38.38,0,0,0,.71,10H9.29a.38.38,0,0,0,.37-.37C9.66,7.05,8,5.63,5,5.63ZM1.08,9.27C1.23,7.34,2.54,6.36,5,6.36s3.77,1,3.92,2.91Z"/><path class="cls-1" d="M5,0A2.39,2.39,0,0,0,2.58,2.36v.11A2.54,2.54,0,0,0,5,5.1,2.54,2.54,0,0,0,7.42,2.47,2.4,2.4,0,0,0,5.11,0ZM5,4.37a1.81,1.81,0,0,1-1.69-1.9A1.66,1.66,0,0,1,4.89.73H5A1.68,1.68,0,0,1,6.69,2.4v.07A1.81,1.81,0,0,1,5,4.37Z"/></svg>