<svg id="Capa_1" data-name="Capa 1" xmlns="http://www.w3.org/2000/svg" viewBox="0 0 25 21"><defs><style>.cls-1{fill:#86ae17;}</style></defs><path class="cls-1" d="M21.38,3.09H11.09L7.64.44A.82.82,0,0,0,7.13.27H.83A.83.83,0,0,0,0,1.1V19.9a.83.83,0,0,0,.83.83H20V19.07H1.66V1.93H6.85l3.46,2.65a.82.82,0,0,0,.5.17h9.74V7.32h1.66V3.92A.83.83,0,0,0,21.38,3.09Z"/><path class="cls-1" d="M24.82,6.83a.83.83,0,0,0-.65-.31H4.81A.83.83,0,0,0,4,7.17L1.24,19.7a.81.81,0,0,0,.16.7.86.86,0,0,0,.65.31H21.4a.85.85,0,0,0,.82-.66L25,7.53A.86.86,0,0,0,24.82,6.83ZM20.74,19.05H3.08L5.48,8.18H23.14Z"/></svg>