<svg id="Capa_1" data-name="Capa 1" xmlns="http://www.w3.org/2000/svg" viewBox="0 0 512 512"><defs><style>.cls-1{fill:#fff;}</style></defs><polygon class="cls-1" points="353.57 176.53 313.5 175.06 304.81 412.34 344.88 413.8 353.57 176.53"/><rect class="cls-1" x="235.95" y="175.79" width="40.1" height="237.28"/><polygon class="cls-1" points="207.19 412.33 198.5 175.05 158.42 176.52 167.11 413.8 207.19 412.33"/><path class="cls-1" d="M17.38,76.87V117H59.17L92.32,493.71a20,20,0,0,0,20,18.29H399a20,20,0,0,0,20-18.3L452.16,117h42.46V76.87Zm363.29,395h-250L99.43,117H411.9Z"/><path class="cls-1" d="M321.5,0h-131a33.46,33.46,0,0,0-33.42,33.42v63.5h40.1V40.1H314.82V96.92h40.1V33.42A33.46,33.46,0,0,0,321.5,0Z"/></svg>