<svg id="Capa_1" data-name="Capa 1" xmlns="http://www.w3.org/2000/svg" viewBox="0 0 20 21"><defs><style>.cls-1{fill:#86ae17;}</style></defs><path class="cls-1" d="M10,11.83c-6.31,0-9.79,3-9.79,8.4A.77.77,0,0,0,1,21H19a.76.76,0,0,0,.76-.77C19.78,14.81,16.31,11.83,10,11.83ZM1.78,19.47c.3-4.06,3.06-6.11,8.22-6.11s7.92,2.05,8.22,6.11Z"/><path class="cls-1" d="M10,0A5,5,0,0,0,4.92,5.19,5.31,5.31,0,0,0,10,10.7a5.31,5.31,0,0,0,5.08-5.51A5,5,0,0,0,10,0Zm0,9.17a3.79,3.79,0,0,1-3.55-4A3.49,3.49,0,0,1,10,1.53a3.53,3.53,0,0,1,3.55,3.66A3.79,3.79,0,0,1,10,9.17Z"/></svg>