<svg id="Capa_1" data-name="Capa 1" xmlns="http://www.w3.org/2000/svg" viewBox="0 0 17 17"><defs><style>.cls-1{fill:#86ae17;}</style></defs><path class="cls-1" d="M4.51,0a.62.62,0,0,0-.62.61V3.89a.62.62,0,0,0,.62.62.61.61,0,0,0,.61-.62V.61A.61.61,0,0,0,4.51,0Z"/><path class="cls-1" d="M15.77,1.64H1.23a1,1,0,0,0-1,1V16a1,1,0,0,0,1,1H15.77a1,1,0,0,0,1-1V2.66A1,1,0,0,0,15.77,1.64Zm-.2,14.13H1.43V2.87H15.57v12.9Z"/><rect class="cls-1" x="0.82" y="5.73" width="15.36" height="1.23"/><path class="cls-1" d="M12.7,0a.62.62,0,0,0-.62.61V3.89a.62.62,0,0,0,.62.62.61.61,0,0,0,.61-.62V.61A.61.61,0,0,0,12.7,0Z"/><path class="cls-1" d="M10.86,12.29H6.35a.61.61,0,0,0-.62.61.62.62,0,0,0,.62.62h4.51a.62.62,0,0,0,.61-.62A.61.61,0,0,0,10.86,12.29Z"/><path class="cls-1" d="M10.86,9.42H6.35a.62.62,0,0,0-.62.62.61.61,0,0,0,.62.61h4.51a.61.61,0,0,0,.61-.61A.62.62,0,0,0,10.86,9.42Z"/></svg>