<svg id="Capa_1" data-name="Capa 1" xmlns="http://www.w3.org/2000/svg" viewBox="0 0 18 15"><defs><style>.cls-1{fill:#fff;}</style></defs><path class="cls-1" d="M15.39,2.16H8L5.5.26A.59.59,0,0,0,5.14.13H.6a.6.6,0,0,0-.6.6V14.27a.6.6,0,0,0,.6.6H14.42v-1.2H1.19V1.33H4.93L7.42,3.24a.61.61,0,0,0,.37.12h7V5.21H16V2.76A.6.6,0,0,0,15.39,2.16Z"/><path class="cls-1" d="M17.87,4.86a.61.61,0,0,0-.47-.23H3.46a.6.6,0,0,0-.58.47l-2,9a.57.57,0,0,0,.12.5.56.56,0,0,0,.46.23H15.41a.6.6,0,0,0,.58-.47l2-9A.63.63,0,0,0,17.87,4.86Zm-2.94,8.79H2.22L3.94,5.83H16.66Z"/></svg>