<svg id="Capa_1" data-name="Capa 1" xmlns="http://www.w3.org/2000/svg" viewBox="0 0 26 20"><defs><style>.cls-1{fill:#86ae17;}</style></defs><path class="cls-1" d="M24.86,3.12a2.71,2.71,0,0,0-2-.85h-4v0A2.24,2.24,0,0,0,16.62,0H9.38A2.22,2.22,0,0,0,7.13,2.22v0h-4a2.71,2.71,0,0,0-2,.85,2.84,2.84,0,0,0-.85,2v12a2.71,2.71,0,0,0,.85,2,2.86,2.86,0,0,0,2,.85H22.86a2.71,2.71,0,0,0,2-.85,2.84,2.84,0,0,0,.85-2v-12A2.71,2.71,0,0,0,24.86,3.12Zm-.41,14h0a1.57,1.57,0,0,1-1.57,1.57H3.14a1.57,1.57,0,0,1-1.57-1.57v-12A1.57,1.57,0,0,1,3.14,3.55H7.81a.65.65,0,0,0,.65-.65V2.2a1,1,0,0,1,.26-.68,1,1,0,0,1,.68-.26h7.22a.91.91,0,0,1,.95.94v.7a.65.65,0,0,0,.65.65h4.66a1.57,1.57,0,0,1,1.57,1.57Z"/><path class="cls-1" d="M13,5.19A6,6,0,0,0,8.8,6.93,5.95,5.95,0,0,0,13,17.08a6,6,0,0,0,4.2-1.74,6,6,0,0,0,0-8.41A6,6,0,0,0,13,5.19Zm3.29,9.25a4.66,4.66,0,0,1-6.58,0,4.62,4.62,0,0,1-1.35-3.28A4.74,4.74,0,0,1,9.71,7.87,4.66,4.66,0,0,1,13,6.52a4.74,4.74,0,0,1,3.29,1.35,4.66,4.66,0,0,1,1.35,3.29A4.54,4.54,0,0,1,16.29,14.44Z"/><circle class="cls-1" cx="21.6" cy="6.35" r="1.18"/></svg>